RobotoExtremo-wghtmin.ufo
<glyph name="numbersign" format="2">
  <advance width="1437"/>
  <unicode hex="0023"/>
  <outline>
    <contour>
      <point x="206.88" y="-20.0" type="line"/>
      <point x="687.28" y="1476.0" type="line"/>
      <point x="764.68" y="1476.0" type="line"/>
      <point x="284.28000000000003" y="-20.0" type="line"/>
    </contour>
    <contour>
      <point x="672.2" y="-20.0" type="line"/>
      <point x="1152.76" y="1476.0" type="line"/>
      <point x="1230.16" y="1476.0" type="line"/>
      <point x="749.6" y="-20.0" type="line"/>
    </contour>
    <contour>
      <point x="48.80000000000001" y="440.72" type="line"/>
      <point x="48.80000000000001" y="521.6" type="line"/>
      <point x="1310.2" y="521.6" type="line"/>
      <point x="1310.2" y="440.72" type="line"/>
    </contour>
    <contour>
      <point x="127.84" y="934.4" type="line"/>
      <point x="127.84" y="1015.28" type="line"/>
      <point x="1388.24" y="1015.28" type="line"/>
      <point x="1388.24" y="934.4" type="line"/>
    </contour>
  </outline>
</glyph>
<glyph name="dollar" format="2">
  <advance width="987"/>
  <unicode hex="0024"/>
  <outline>
    <contour>
      <point x="70" y="411.0" type="qcurve" smooth="yes"/>
      <point x="70" y="423.0" type="line"/>
      <point x="157" y="423.0" type="line"/>
      <point x="157" y="411.0" type="line" smooth="yes"/>
      <point x="157" y="249"/>
      <point x="339" y="85"/>
      <point x="503" y="85" type="qcurve" smooth="yes"/>
      <point x="665" y="85"/>
      <point x="841" y="255"/>
      <point x="840.0" y="363" type="qcurve" smooth="yes"/>
      <point x="839" y="477"/>
      <point x="703" y="641"/>
      <point x="494" y="700" type="qcurve" smooth="yes"/>
      <point x="277" y="761"/>
      <point x="99" y="944"/>
      <point x="99" y="1096" type="qcurve" smooth="yes"/>
      <point x="99" y="1254"/>
      <point x="305.0" y="1456.0"/>
      <point x="493" y="1456.0" type="qcurve" smooth="yes"/>
      <point x="678" y="1456.0"/>
      <point x="898" y="1224"/>
      <point x="898" y="1051.0" type="qcurve" smooth="yes"/>
      <point x="898" y="1039.0" type="line"/>
      <point x="810.0" y="1039.0" type="line"/>
      <point x="810.0" y="1051.0" type="line" smooth="yes"/>
      <point x="810.0" y="1194"/>
      <point x="650" y="1371"/>
      <point x="493" y="1371" type="qcurve" smooth="yes"/>
      <point x="335" y="1371"/>
      <point x="186" y="1225"/>
      <point x="186" y="1096" type="qcurve" smooth="yes"/>
      <point x="186" y="990"/>
      <point x="328" y="833"/>
      <point x="547" y="783" type="qcurve" smooth="yes"/>
      <point x="737" y="740"/>
      <point x="926" y="551"/>
      <point x="926" y="383" type="qcurve" smooth="yes"/>
      <point x="926" y="215"/>
      <point x="699" y="0.0"/>
      <point x="503" y="0.0" type="qcurve" smooth="yes"/>
      <point x="307" y="0.0"/>
      <point x="70" y="217"/>
    </contour>
    <contour>
      <point x="461" y="-150.0" type="line"/>
      <point x="461" y="728.0" type="line"/>
      <point x="535" y="728.0" type="line"/>
      <point x="535" y="50.0" type="line"/>
      <point x="537" y="40.0" type="line"/>
      <point x="537" y="-150.0" type="line"/>
    </contour>
    <contour>
      <point x="464" y="728.0" type="line"/>
      <point x="464" y="1406.0" type="line"/>
      <point x="461" y="1416.0" type="line"/>
      <point x="461" y="1606.0" type="line"/>
      <point x="537" y="1606.0" type="line"/>
      <point x="537" y="728.0" type="line"/>
    </contour>
  </outline>
</glyph>
<glyph name="two" format="2">
  <advance width="1193"/>
  <unicode hex="0032"/>
  <outline>
    <contour>
      <point x="206.2" y="0.0" type="line"/>
      <point x="206.2" y="78.8" type="line"/>
      <point x="665.72" y="655.12" type="line" smooth="yes"/>
      <point x="758.46" y="774.2"/>
      <point x="876.8" y="973.12"/>
      <point x="876.8" y="1080.16" type="qcurve" smooth="yes"/>
      <point x="876.8" y="1214.16"/>
      <point x="732.1999999999999" y="1401.44"/>
      <point x="604.04" y="1401.44" type="qcurve" smooth="yes"/>
      <point x="473.32" y="1401.44"/>
      <point x="299.84" y="1201.6"/>
      <point x="299.84" y="1030.0" type="qcurve" smooth="yes"/>
      <point x="299.84" y="1020.0" type="line"/>
      <point x="210.64" y="1020.0" type="line"/>
      <point x="210.64" y="1030.0" type="line" smooth="yes"/>
      <point x="210.64" y="1227.76"/>
      <point x="433.38" y="1486.0"/>
      <point x="604.04" y="1486.0" type="qcurve" smooth="yes"/>
      <point x="771.34" y="1486.0"/>
      <point x="966.9" y="1250.0"/>
      <point x="966.9" y="1090.16" type="qcurve" smooth="yes"/>
      <point x="966.9" y="952.08"/>
      <point x="829.9" y="726.16"/>
      <point x="725.26" y="595.0" type="qcurve" smooth="yes"/>
      <point x="320.34" y="83.92" type="line"/>
      <point x="997.4" y="83.92" type="line"/>
      <point x="997.4" y="0.0" type="line"/>
    </contour>
  </outline>
</glyph>
<glyph name="less" format="2">
  <advance width="1203"/>
  <unicode hex="003C"/>
  <outline>
    <contour>
      <point x="1022.64" y="248.84" type="line"/>
      <point x="172.0" y="630.56" type="line"/>
      <point x="172.0" y="717.44" type="line"/>
      <point x="1022.64" y="1099.16" type="line"/>
      <point x="1022.64" y="998.2" type="line"/>
      <point x="276.15999999999997" y="674.0" type="line"/>
      <point x="1022.64" y="349.8" type="line"/>
    </contour>
  </outline>
</glyph>
<glyph name="at" format="2">
  <advance width="1991"/>
  <unicode hex="0040"/>
  <outline>
    <contour>
      <point x="637.96" y="400.0" type="qcurve" smooth="yes"/>
      <point x="637.96" y="680.0"/>
      <point x="893.74" y="1052.0"/>
      <point x="1071.44" y="1052.0" type="qcurve" smooth="yes"/>
      <point x="1146.46" y="1052.0"/>
      <point x="1276.6399999999999" y="980.24"/>
      <point x="1312.28" y="946.0" type="qcurve"/>
      <point x="1339.36" y="946.0" type="line"/>
      <point x="1214.56" y="350.0" type="line" smooth="yes"/>
      <point x="1182.2" y="196.0"/>
      <point x="1315.44" y="77.52"/>
      <point x="1428.24" y="77.52" type="qcurve" smooth="yes"/>
      <point x="1590.3498734177215" y="77.52"/>
      <point x="1793.68" y="394.15999999999997"/>
      <point x="1793.68" y="650.0" type="qcurve" smooth="yes"/>
      <point x="1793.68" y="948.56"/>
      <point x="1398.8589944134078" y="1402.08"/>
      <point x="1041.84" y="1402.08" type="qcurve" smooth="yes"/>
      <point x="685.044" y="1402.08"/>
      <point x="202.32" y="849.92"/>
      <point x="202.32" y="460.0" type="qcurve" smooth="yes"/>
      <point x="202.32" y="65.32"/>
      <point x="622.6171428571429" y="-362.08"/>
      <point x="937.84" y="-362.08" type="qcurve" smooth="yes"/>
      <point x="1083.44" y="-362.08"/>
      <point x="1285.12" y="-308.08"/>
      <point x="1353.84" y="-272.08" type="qcurve"/>
      <point x="1353.84" y="-356.0" type="line"/>
      <point x="1280.96" y="-400.0"/>
      <point x="1083.44" y="-446.0"/>
      <point x="937.84" y="-446.0" type="qcurve" smooth="yes"/>
      <point x="596.0" y="-446.0"/>
      <point x="114.0" y="40.0"/>
      <point x="114.0" y="460.0" type="qcurve" smooth="yes"/>
      <point x="114.0" y="880.0"/>
      <point x="658.4" y="1486.0"/>
      <point x="1041.84" y="1486.0" type="qcurve" smooth="yes"/>
      <point x="1422.32" y="1486.0"/>
      <point x="1877.48" y="1000.0"/>
      <point x="1877.48" y="650.0" type="qcurve" smooth="yes"/>
      <point x="1877.48" y="360.0"/>
      <point x="1620.04" y="0.0"/>
      <point x="1434.24" y="0.0" type="qcurve" smooth="yes"/>
      <point x="1320.2869733656175" y="0.0"/>
      <point x="1160.9501415862605" y="101.0157734619832"/>
      <point x="1126.96" y="186.8" type="qcurve"/>
      <point x="1090.86249803601" y="101.44967488517425"/>
      <point x="961.9391097922849" y="0.0"/>
      <point x="884.24" y="0.0" type="qcurve" smooth="yes"/>
      <point x="771.2" y="0.0"/>
      <point x="637.96" y="220.0"/>
    </contour>
    <contour>
      <point x="727.3199999999999" y="400.0" type="qcurve" smooth="yes"/>
      <point x="727.3199999999999" y="244.64"/>
      <point x="819.6318446601941" y="83.92"/>
      <point x="906.56" y="83.92" type="qcurve" smooth="yes"/>
      <point x="981.9561977186312" y="83.92"/>
      <point x="1095.5172530703223" y="221.66625179003748"/>
      <point x="1132.56" y="390.0" type="qcurve" smooth="yes"/>
      <point x="1247.66" y="917.6" type="line"/>
      <point x="1218.8754174303278" y="941.6339908261432"/>
      <point x="1129.8799999999999" y="973.2"/>
      <point x="1087.02" y="973.2" type="qcurve" smooth="yes"/>
      <point x="931.1707389162561" y="973.2"/>
      <point x="727.3199999999999" y="646.52"/>
    </contour>
  </outline>
</glyph>
<glyph name="bracketright" format="2">
  <advance width="554"/>
  <unicode hex="005D"/>
  <outline>
    <contour>
      <point x="409.8" y="-310.0" type="line"/>
      <point x="10.960000000000008" y="-310.0" type="line"/>
      <point x="10.960000000000008" y="-224.8" type="line"/>
      <point x="321.0" y="-224.8" type="line"/>
      <point x="321.0" y="1370.8" type="line"/>
      <point x="10.960000000000008" y="1370.8" type="line"/>
      <point x="10.960000000000008" y="1456.0" type="line"/>
      <point x="409.8" y="1456.0" type="line"/>
    </contour>
  </outline>
</glyph>
<glyph name="asciicircum" format="2">
  <advance width="1119"/>
  <unicode hex="005E"/>
  <outline>
    <contour>
      <point x="25.0" y="720.0" type="line"/>
      <point x="522.4" y="1456.0" type="line"/>
      <point x="596.2" y="1456.0" type="line"/>
      <point x="1093.6" y="720.0" type="line"/>
      <point x="989.8" y="720.0" type="line"/>
      <point x="559.3" y="1363.92" type="line"/>
      <point x="128.8" y="720.0" type="line"/>
    </contour>
  </outline>
</glyph>
<glyph name="w" format="2">
  <advance width="1443"/>
  <unicode hex="0077"/>
  <outline>
    <contour>
      <point x="25.0" y="1052.0" type="line"/>
      <point x="117.28" y="1052.0" type="line"/>
      <point x="336" y="262" type="line" smooth="yes"/>
      <point x="347" y="222"/>
      <point x="367.82" y="141.6"/>
      <point x="375.15999999999997" y="101.6" type="qcurve"/>
      <point x="381.15999999999997" y="101.6" type="line"/>
      <point x="388.65999999999997" y="141.6"/>
      <point x="414" y="222"/>
      <point x="427" y="262" type="qcurve" smooth="yes"/>
      <point x="684" y="1052.0" type="line"/>
      <point x="763" y="1052.0" type="line"/>
      <point x="1022" y="262" type="line" smooth="yes"/>
      <point x="1035" y="222"/>
      <point x="1061.6599999999999" y="141.6"/>
      <point x="1069.1599999999999" y="101.6" type="qcurve"/>
      <point x="1075.1599999999999" y="101.6" type="line"/>
      <point x="1082.5" y="141.6"/>
      <point x="1099.44" y="221.6"/>
      <point x="1110.5" y="261.6" type="qcurve" smooth="yes"/>
      <point x="1330.08" y="1052.0" type="line"/>
      <point x="1417.6399999999999" y="1052.0" type="line"/>
      <point x="1113.8799999999999" y="0.0" type="line"/>
      <point x="1027.3" y="0.0" type="line"/>
      <point x="768.0799999999999" y="785.2" type="line" smooth="yes"/>
      <point x="754.86" y="825.2"/>
      <point x="733.64" y="905.2"/>
      <point x="725.8" y="945.2" type="qcurve"/>
      <point x="719.8" y="945.2" type="line"/>
      <point x="711.96" y="905.2"/>
      <point x="690.74" y="825.2"/>
      <point x="677.52" y="785.2" type="qcurve" smooth="yes"/>
      <point x="415.34" y="0.0" type="line"/>
      <point x="328.92" y="0.0" type="line"/>
    </contour>
  </outline>
</glyph>
<glyph name="y" format="2">
  <advance width="996"/>
  <unicode hex="0079"/>
  <anchor x="570" y="1052" name="top"/>
  <outline>
    <contour>
      <point x="129.94" y="-416.0" type="qcurve"/>
      <point x="129.94" y="-331.44" type="line"/>
      <point x="156.8" y="-339.44"/>
      <point x="221.51999999999998" y="-350.8"/>
      <point x="249.57999999999998" y="-350.8" type="qcurve" smooth="yes"/>
      <point x="327.68716981132076" y="-350.8"/>
      <point x="414.4187769649729" y="-239.0703925243955"/>
      <point x="466.38" y="-100.0" type="qcurve" smooth="yes"/>
      <point x="504.65999999999997" y="3.1999999999999993" type="line"/>
      <point x="98.8" y="1052.0" type="line"/>
      <point x="193.2" y="1052.0" type="line"/>
      <point x="493.12" y="261.6" type="line" smooth="yes"/>
      <point x="508.34" y="221.6"/>
      <point x="535.72" y="141.6"/>
      <point x="544.76" y="101.6" type="qcurve"/>
      <point x="550.4399999999999" y="101.6" type="line"/>
      <point x="559.48" y="141.6"/>
      <point x="587.12" y="221.6"/>
      <point x="602.0799999999999" y="261.6" type="qcurve" smooth="yes"/>
      <point x="899.88" y="1052.0" type="line"/>
      <point x="990.28" y="1052.0" type="line"/>
      <point x="533.34" y="-140.0" type="line" smooth="yes"/>
      <point x="480.94246327966016" y="-276.8840391589863"/>
      <point x="361.99824561403506" y="-436.0"/>
      <point x="252.66" y="-436.0" type="qcurve" smooth="yes"/>
      <point x="214.12" y="-436.0"/>
      <point x="157.32" y="-425.32"/>
    </contour>
  </outline>
</glyph>
<glyph name="dieresis" format="2">
  <advance width="1024"/>
  <unicode hex="00A8"/>
  <anchor x="423" y="1577" name="mkmktop_acc"/>
  <outline>
    <contour>
      <point x="218" y="1283" type="qcurve" smooth="yes"/>
      <point x="218" y="1315"/>
      <point x="258" y="1360"/>
      <point x="296" y="1360" type="qcurve" smooth="yes"/>
      <point x="335" y="1360"/>
      <point x="375" y="1315"/>
      <point x="375" y="1283" type="qcurve" smooth="yes"/>
      <point x="375" y="1251"/>
      <point x="335" y="1207"/>
      <point x="296" y="1207" type="qcurve" smooth="yes"/>
      <point x="258" y="1207"/>
      <point x="218" y="1251"/>
    </contour>
    <contour>
      <point x="649" y="1281" type="qcurve" smooth="yes"/>
      <point x="649" y="1313"/>
      <point x="689" y="1358"/>
      <point x="727" y="1358" type="qcurve" smooth="yes"/>
      <point x="765" y="1358"/>
      <point x="806" y="1313"/>
      <point x="806" y="1281" type="qcurve" smooth="yes"/>
      <point x="806" y="1249"/>
      <point x="765" y="1205.0"/>
      <point x="727" y="1205.0" type="qcurve" smooth="yes"/>
      <point x="689" y="1205.0"/>
      <point x="649" y="1249"/>
    </contour>
  </outline>
</glyph>
<glyph name="degree" format="2">
  <advance width="765"/>
  <unicode hex="00B0"/>
  <outline>
    <contour>
      <point x="151" y="1239" type="qcurve"/>
      <point x="151" y="1336"/>
      <point x="290" y="1477"/>
      <point x="385" y="1477" type="qcurve" smooth="yes"/>
      <point x="479" y="1477"/>
      <point x="615" y="1336"/>
      <point x="615" y="1239" type="qcurve" smooth="yes"/>
      <point x="615" y="1141"/>
      <point x="479" y="1004"/>
      <point x="385" y="1004" type="qcurve" smooth="yes"/>
      <point x="290" y="1004"/>
      <point x="151" y="1141"/>
    </contour>
    <contour>
      <point x="235" y="1239" type="qcurve"/>
      <point x="235" y="1176"/>
      <point x="324" y="1091"/>
      <point x="385" y="1091" type="qcurve" smooth="yes"/>
      <point x="447" y="1091"/>
      <point x="531" y="1176"/>
      <point x="531" y="1239" type="qcurve" smooth="yes"/>
      <point x="531" y="1303"/>
      <point x="447" y="1390"/>
      <point x="385" y="1390" type="qcurve" smooth="yes"/>
      <point x="324" y="1390"/>
      <point x="235" y="1303"/>
    </contour>
  </outline>
</glyph>
<glyph name="onesuperior" format="2">
  <advance width="605"/>
  <unicode hex="00B9"/>
  <outline>
    <contour>
      <point x="80" y="1281" type="line"/>
      <point x="80" y="1370" type="line"/>
      <point x="363" y="1486" type="line"/>
      <point x="388" y="1486" type="line"/>
      <point x="388" y="697" type="line"/>
      <point x="303" y="697" type="line"/>
      <point x="303" y="1366" type="line"/>
    </contour>
  </outline>
</glyph>
<glyph name="tilde" format="2">
  <advance width="1024"/>
  <unicode hex="02DC"/>
  <anchor x="475" y="1598" name="mkmktop_acc"/>
  <outline>
    <contour>
      <point x="186.0" y="1276" type="line"/>
      <point x="219.0" y="1339"/>
      <point x="327.0" y="1397"/>
      <point x="394.0" y="1397" type="qcurve" smooth="yes"/>
      <point x="435.0" y="1397"/>
      <point x="510" y="1372"/>
      <point x="547.0" y="1348" type="qcurve" smooth="yes"/>
      <point x="581.0" y="1326"/>
      <point x="659.0" y="1282"/>
      <point x="697.0" y="1282" type="qcurve" smooth="yes"/>
      <point x="737" y="1282"/>
      <point x="807.0" y="1335"/>
      <point x="830.0" y="1371" type="qcurve"/>
      <point x="881" y="1313" type="line"/>
      <point x="854" y="1253"/>
      <point x="757.0" y="1190.0"/>
      <point x="695" y="1190.0" type="qcurve" smooth="yes"/>
      <point x="634" y="1190"/>
      <point x="540" y="1233"/>
      <point x="509.0" y="1250" type="qcurve" smooth="yes"/>
      <point x="475.0" y="1269"/>
      <point x="407.0" y="1303"/>
      <point x="378.0" y="1303" type="qcurve" smooth="yes"/>
      <point x="331.0" y="1303"/>
      <point x="250.0" y="1234"/>
      <point x="232.0" y="1204" type="qcurve"/>
    </contour>
  </outline>
</glyph>
<glyph name="dotbelowcomb" format="2">
  <advance width="1024"/>
  <unicode hex="0323"/>
  <outline>
    <contour>
      <point x="394" y="-279" type="qcurve" smooth="yes"/>
      <point x="394" y="-224"/>
      <point x="454" y="-164"/>
      <point x="512" y="-164" type="qcurve" smooth="yes"/>
      <point x="566" y="-164"/>
      <point x="630" y="-228"/>
      <point x="630" y="-279" type="qcurve" smooth="yes"/>
      <point x="630" y="-335"/>
      <point x="570" y="-395"/>
      <point x="512" y="-395" type="qcurve" smooth="yes"/>
      <point x="458" y="-395"/>
      <point x="394" y="-331"/>
    </contour>
  </outline>
</glyph>
<glyph name="acutecomb.case" format="2">
  <advance width="1024"/>
  <outline>
    <contour>
      <point x="426" y="1620" type="line"/>
      <point x="654" y="1962" type="line"/>
      <point x="761" y="1905" type="line"/>
      <point x="487" y="1584" type="line"/>
    </contour>
  </outline>
</glyph>
<glyph name="circumflexcombstack.case" format="2">
  <advance width="1024"/>
  <outline>
    <contour>
      <point x="543" y="1925" type="line"/>
      <point x="818" y="1585" type="line"/>
      <point x="717" y="1583" type="line"/>
      <point x="503" y="1832" type="line"/>
      <point x="295" y="1585" type="line"/>
      <point x="192" y="1585" type="line"/>
      <point x="459" y="1925" type="line"/>
    </contour>
  </outline>
</glyph>
<glyph name="dieresiscomb.case" format="2">
  <advance width="1024"/>
  <outline>
    <contour>
      <point x="199" y="1756" type="qcurve" smooth="yes"/>
      <point x="199" y="1796"/>
      <point x="242" y="1839"/>
      <point x="282.0" y="1839" type="qcurve" smooth="yes"/>
      <point x="320" y="1839"/>
      <point x="365" y="1793"/>
      <point x="365" y="1756" type="qcurve" smooth="yes"/>
      <point x="365" y="1717"/>
      <point x="323" y="1674.0"/>
      <point x="282.0" y="1674.0" type="qcurve" smooth="yes"/>
      <point x="244" y="1674.0"/>
      <point x="199" y="1719"/>
    </contour>
    <contour>
      <point x="659" y="1756" type="qcurve" smooth="yes"/>
      <point x="659" y="1796"/>
      <point x="702" y="1839"/>
      <point x="742.0" y="1839" type="qcurve" smooth="yes"/>
      <point x="780" y="1839"/>
      <point x="825" y="1793"/>
      <point x="825" y="1756" type="qcurve" smooth="yes"/>
      <point x="825" y="1717"/>
      <point x="783" y="1674.0"/>
      <point x="742.0" y="1674.0" type="qcurve" smooth="yes"/>
      <point x="704" y="1674.0"/>
      <point x="659" y="1719"/>
    </contour>
  </outline>
</glyph>
<glyph name="gravecombstack.case" format="2">
  <advance width="1024"/>
  <outline>
    <contour>
      <point x="640" y="1570" type="line"/>
      <point x="257" y="1756" type="line"/>
      <point x="328" y="1874" type="line"/>
      <point x="677" y="1630" type="line"/>
    </contour>
  </outline>
</glyph>
<glyph name="hookabovecombstack.case" format="2">
  <advance width="1024"/>
  <outline>
    <contour>
      <point x="370" y="1567" type="line"/>
      <point x="370" y="1602" type="line" smooth="yes"/>
      <point x="370" y="1648"/>
      <point x="426" y="1693"/>
      <point x="498" y="1710" type="qcurve" smooth="yes"/>
      <point x="548" y="1722"/>
      <point x="586" y="1750"/>
      <point x="586.0" y="1785" type="qcurve" smooth="yes"/>
      <point x="586" y="1822"/>
      <point x="534" y="1857"/>
      <point x="490" y="1857.0" type="qcurve" smooth="yes"/>
      <point x="430" y="1857.0"/>
      <point x="329" y="1826"/>
      <point x="306" y="1814" type="qcurve"/>
      <point x="257.0" y="1901" type="line"/>
      <point x="291" y="1924"/>
      <point x="413" y="1960"/>
      <point x="488" y="1960" type="qcurve" smooth="yes"/>
      <point x="584" y="1960"/>
      <point x="693" y="1867"/>
      <point x="693" y="1791" type="qcurve" smooth="yes"/>
      <point x="693" y="1716"/>
      <point x="579" y="1623"/>
      <point x="472" y="1612" type="qcurve"/>
      <point x="472" y="1567" type="line"/>
    </contour>
  </outline>
</glyph>
<glyph name="macroncomb.case" format="2">
  <advance width="1024"/>
  <outline>
    <contour>
      <point x="236" y="1674" type="line"/>
      <point x="236" y="1775" type="line"/>
      <point x="788" y="1775" type="line"/>
      <point x="788" y="1674" type="line"/>
    </contour>
  </outline>
</glyph>
